<?xml version="1.0" standalone="no"?>
<svg viewBox="0 0 200 200" xmlns="http://www.w3.org/2000/svg">
  <path fill="#3344B0" d="M28.5,-49.1C39,-43.4,51,-39.9,56.9,-32.1C62.9,-24.2,62.8,-12.1,66,1.8C69.1,15.8,75.5,31.5,70,40.1C64.5,48.6,47,49.8,33.3,56.8C19.7,63.7,9.8,76.3,-1.5,78.9C-12.9,81.6,-25.7,74.2,-37.3,66.1C-49,58,-59.4,49.1,-68.6,38C-77.9,26.8,-86,13.4,-87.8,-1.1C-89.6,-15.5,-85.2,-31.1,-75.3,-41C-65.4,-51,-49.9,-55.4,-36.4,-59.3C-23,-63.3,-11.5,-66.9,-1.2,-64.8C9,-62.6,18,-54.8,28.5,-49.1Z" transform="translate(100 100)" />
</svg>
