<svg id="visual" viewBox="0 0 1024 1024" width="1024" height="1024" xmlns="http://www.w3.org/2000/svg" xmlns:xlink="http://www.w3.org/1999/xlink" version="1.1"><g transform="translate(555.5121563714615 456.12243773584476)"><path d="M293.2 -343C351.9 -300.1 352.2 -181.1 374 -64.9C395.8 51.4 439.1 164.9 398.9 226.4C358.8 287.8 235.1 297.1 120.9 343.7C6.6 390.3 -98.3 474.2 -209.2 476.5C-320.2 478.8 -437.2 399.4 -480.8 292.7C-524.4 186 -494.6 52 -456.5 -65.9C-418.3 -183.8 -371.8 -285.7 -294.3 -325.4C-216.8 -365.1 -108.4 -342.5 4.4 -347.8C117.2 -353 234.4 -386 293.2 -343" fill="#3358f4"></path></g></svg>